<svg width="16" height="20" viewBox="0 0 16 20" fill="none" xmlns="http://www.w3.org/2000/svg">
<path d="M8 6V0H2C1.46957 0 0.960859 0.210714 0.585786 0.585786C0.210714 0.960859 0 1.46957 0 2V18C0 18.5304 0.210714 19.0391 0.585786 19.4142C0.960859 19.7893 1.46957 20 2 20H14C14.5304 20 15.0391 19.7893 15.4142 19.4142C15.7893 19.0391 16 18.5304 16 18V8H10C9.46957 8 8.96086 7.78929 8.58579 7.41421C8.21071 7.03914 8 6.53043 8 6ZM3 10.25C3 10.0511 3.07902 9.86032 3.21967 9.71967C3.36032 9.57902 3.55109 9.5 3.75 9.5C3.94891 9.5 4.13968 9.57902 4.28033 9.71967C4.42098 9.86032 4.5 10.0511 4.5 10.25C4.5 10.4489 4.42098 10.6397 4.28033 10.7803C4.13968 10.921 3.94891 11 3.75 11C3.55109 11 3.36032 10.921 3.21967 10.7803C3.07902 10.6397 3 10.4489 3 10.25ZM3 13.25C3 13.0511 3.07902 12.8603 3.21967 12.7197C3.36032 12.579 3.55109 12.5 3.75 12.5C3.94891 12.5 4.13968 12.579 4.28033 12.7197C4.42098 12.8603 4.5 13.0511 4.5 13.25C4.5 13.4489 4.42098 13.6397 4.28033 13.7803C4.13968 13.921 3.94891 14 3.75 14C3.55109 14 3.36032 13.921 3.21967 13.7803C3.07902 13.6397 3 13.4489 3 13.25ZM3 16.25C3 16.0511 3.07902 15.8603 3.21967 15.7197C3.36032 15.579 3.55109 15.5 3.75 15.5C3.94891 15.5 4.13968 15.579 4.28033 15.7197C4.42098 15.8603 4.5 16.0511 4.5 16.25C4.5 16.4489 4.42098 16.6397 4.28033 16.7803C4.13968 16.921 3.94891 17 3.75 17C3.55109 17 3.36032 16.921 3.21967 16.7803C3.07902 16.6397 3 16.4489 3 16.25ZM6 10.25C6 10.0511 6.07902 9.86032 6.21967 9.71967C6.36032 9.57902 6.55109 9.5 6.75 9.5H12.25C12.4489 9.5 12.6397 9.57902 12.7803 9.71967C12.921 9.86032 13 10.0511 13 10.25C13 10.4489 12.921 10.6397 12.7803 10.7803C12.6397 10.921 12.4489 11 12.25 11H6.75C6.55109 11 6.36032 10.921 6.21967 10.7803C6.07902 10.6397 6 10.4489 6 10.25ZM6 13.25C6 13.0511 6.07902 12.8603 6.21967 12.7197C6.36032 12.579 6.55109 12.5 6.75 12.5H12.25C12.4489 12.5 12.6397 12.579 12.7803 12.7197C12.921 12.8603 13 13.0511 13 13.25C13 13.4489 12.921 13.6397 12.7803 13.7803C12.6397 13.921 12.4489 14 12.25 14H6.75C6.55109 14 6.36032 13.921 6.21967 13.7803C6.07902 13.6397 6 13.4489 6 13.25ZM6 16.25C6 16.0511 6.07902 15.8603 6.21967 15.7197C6.36032 15.579 6.55109 15.5 6.75 15.5H12.25C12.4489 15.5 12.6397 15.579 12.7803 15.7197C12.921 15.8603 13 16.0511 13 16.25C13 16.4489 12.921 16.6397 12.7803 16.7803C12.6397 16.921 12.4489 17 12.25 17H6.75C6.55109 17 6.36032 16.921 6.21967 16.7803C6.07902 16.6397 6 16.4489 6 16.25ZM9.5 6V0.5L15.5 6.5H10C9.86739 6.5 9.74021 6.44732 9.64645 6.35355C9.55268 6.25979 9.5 6.13261 9.5 6Z" fill="white"/>
</svg>
