<svg width="20" height="16" viewBox="0 0 20 16" fill="none" xmlns="http://www.w3.org/2000/svg">
<path d="M19.6004 4.34827L10.3232 0.0703363C10.2227 0.024066 10.1121 0 10 0C9.88791 0 9.77732 0.024066 9.67679 0.0703363L0.401786 4.34827C0.281848 4.40273 0.180644 4.48745 0.109635 4.59283C0.0386253 4.69821 0.000646772 4.82004 0 4.94452V15.3333C0.000526023 15.4214 0.0196417 15.5085 0.0562547 15.5897C0.0928677 15.6709 0.14626 15.7445 0.213382 15.8064C0.280503 15.8683 0.360038 15.9173 0.447441 15.9505C0.534843 15.9837 0.628401 16.0005 0.722768 16H19.2772C19.3716 16.0005 19.4652 15.9837 19.5526 15.9505C19.64 15.9173 19.7195 15.8683 19.7866 15.8064C19.8537 15.7445 19.9071 15.6709 19.9437 15.5897C19.9804 15.5085 19.9995 15.4214 20 15.3333V4.94452C19.9996 4.82026 19.9619 4.69858 19.8913 4.59322C19.8207 4.48787 19.72 4.40303 19.6004 4.34827ZM10 1.41201L17.7232 4.97202L9.87947 8.58787L2.15625 5.02786L10 1.41201Z" fill="white"/>
</svg>
