<svg width="14" height="12" viewBox="0 0 14 12" fill="none" xmlns="http://www.w3.org/2000/svg">
<path d="M4.375 0.857143C4.375 0.629814 4.28281 0.411797 4.11872 0.251051C3.95462 0.0903058 3.73206 0 3.5 0H1.75C1.51794 0 1.29538 0.0903058 1.13128 0.251051C0.967187 0.411797 0.875 0.629814 0.875 0.857143V11.1429H0.4375C0.321468 11.1429 0.210188 11.188 0.12814 11.2684C0.0460933 11.3488 0 11.4578 0 11.5714C0 11.6851 0.0460933 11.7941 0.12814 11.8745C0.210188 11.9548 0.321468 12 0.4375 12H13.5625C13.6785 12 13.7898 11.9548 13.8719 11.8745C13.9539 11.7941 14 11.6851 14 11.5714C14 11.4578 13.9539 11.3488 13.8719 11.2684C13.7898 11.188 13.6785 11.1429 13.5625 11.1429H13.125V8.57143C13.125 8.3441 13.0328 8.12608 12.8687 7.96534C12.7046 7.80459 12.4821 7.71429 12.25 7.71429H10.5C10.2679 7.71429 10.0454 7.80459 9.88128 7.96534C9.71719 8.12608 9.625 8.3441 9.625 8.57143V11.1429H8.75V5.14286C8.75 4.91553 8.65781 4.69751 8.49372 4.53677C8.32962 4.37602 8.10706 4.28571 7.875 4.28571H6.125C5.89294 4.28571 5.67038 4.37602 5.50628 4.53677C5.34219 4.69751 5.25 4.91553 5.25 5.14286V11.1429H4.375V0.857143Z" fill="white"/>
</svg>
