<svg width="16" height="13" viewBox="0 0 16 13" fill="none" xmlns="http://www.w3.org/2000/svg">
<path d="M8 9.80124C7.40326 9.80124 6.83097 9.56902 6.40901 9.15567C5.98705 8.74231 5.75 8.18168 5.75 7.59711C5.75 6.77423 6.2075 6.05422 6.875 5.67951L14.1575 1.55044L10.01 8.58897C9.635 9.30899 8.8775 9.80124 8 9.80124ZM8 0.25C9.3575 0.25 10.625 0.617356 11.7275 1.21982L10.1525 2.10882C9.5 1.85902 8.75 1.71942 8 1.71942C6.4087 1.71942 4.88258 2.33868 3.75736 3.44096C2.63214 4.54324 2 6.03825 2 7.59711C2 9.22082 2.6675 10.6902 3.755 11.7482H3.7625C4.055 12.0348 4.055 12.4976 3.7625 12.7842C3.47 13.0707 2.99 13.0707 2.6975 12.7915C1.99998 12.1102 1.44677 11.3005 1.06966 10.4091C0.692537 9.51769 0.498946 8.56205 0.500004 7.59711C0.500004 5.64854 1.29018 3.77977 2.6967 2.40192C4.10322 1.02407 6.01088 0.25 8 0.25M15.5 7.59711C15.5 9.62491 14.66 11.4617 13.3025 12.7915C13.01 13.0707 12.5375 13.0707 12.245 12.7842C12.1755 12.7162 12.1203 12.6355 12.0827 12.5466C12.045 12.4577 12.0257 12.3624 12.0257 12.2662C12.0257 12.17 12.045 12.0747 12.0827 11.9858C12.1203 11.8969 12.1755 11.8162 12.245 11.7482C12.8028 11.2041 13.245 10.5571 13.5462 9.84459C13.8475 9.13212 14.0017 8.36827 14 7.59711C14 6.8624 13.8575 6.12769 13.595 5.46645L14.5025 3.92356C15.125 5.02562 15.5 6.25994 15.5 7.59711Z" fill="white"/>
</svg>
