<svg width="12" height="14" viewBox="0 0 12 14" fill="none" xmlns="http://www.w3.org/2000/svg">
<path d="M6 4.2V0H1.5C1.10218 0 0.720644 0.1475 0.43934 0.41005C0.158035 0.672601 0 1.0287 0 1.4V12.6C0 12.9713 0.158035 13.3274 0.43934 13.5899C0.720644 13.8525 1.10218 14 1.5 14H10.5C10.8978 14 11.2794 13.8525 11.5607 13.5899C11.842 13.3274 12 12.9713 12 12.6V5.6H7.5C7.10218 5.6 6.72064 5.4525 6.43934 5.18995C6.15804 4.9274 6 4.5713 6 4.2ZM2.25 7.175C2.25 7.03576 2.30926 6.90223 2.41475 6.80377C2.52024 6.70531 2.66332 6.65 2.8125 6.65C2.96168 6.65 3.10476 6.70531 3.21025 6.80377C3.31574 6.90223 3.375 7.03576 3.375 7.175C3.375 7.31424 3.31574 7.44777 3.21025 7.54623C3.10476 7.64469 2.96168 7.7 2.8125 7.7C2.66332 7.7 2.52024 7.64469 2.41475 7.54623C2.30926 7.44777 2.25 7.31424 2.25 7.175ZM2.25 9.275C2.25 9.13576 2.30926 9.00223 2.41475 8.90377C2.52024 8.80531 2.66332 8.75 2.8125 8.75C2.96168 8.75 3.10476 8.80531 3.21025 8.90377C3.31574 9.00223 3.375 9.13576 3.375 9.275C3.375 9.41424 3.31574 9.54777 3.21025 9.64623C3.10476 9.74469 2.96168 9.8 2.8125 9.8C2.66332 9.8 2.52024 9.74469 2.41475 9.64623C2.30926 9.54777 2.25 9.41424 2.25 9.275ZM2.25 11.375C2.25 11.2358 2.30926 11.1022 2.41475 11.0038C2.52024 10.9053 2.66332 10.85 2.8125 10.85C2.96168 10.85 3.10476 10.9053 3.21025 11.0038C3.31574 11.1022 3.375 11.2358 3.375 11.375C3.375 11.5142 3.31574 11.6478 3.21025 11.7462C3.10476 11.8447 2.96168 11.9 2.8125 11.9C2.66332 11.9 2.52024 11.8447 2.41475 11.7462C2.30926 11.6478 2.25 11.5142 2.25 11.375ZM4.5 7.175C4.5 7.03576 4.55926 6.90223 4.66475 6.80377C4.77024 6.70531 4.91332 6.65 5.0625 6.65H9.1875C9.33668 6.65 9.47976 6.70531 9.58525 6.80377C9.69074 6.90223 9.75 7.03576 9.75 7.175C9.75 7.31424 9.69074 7.44777 9.58525 7.54623C9.47976 7.64469 9.33668 7.7 9.1875 7.7H5.0625C4.91332 7.7 4.77024 7.64469 4.66475 7.54623C4.55926 7.44777 4.5 7.31424 4.5 7.175ZM4.5 9.275C4.5 9.13576 4.55926 9.00223 4.66475 8.90377C4.77024 8.80531 4.91332 8.75 5.0625 8.75H9.1875C9.33668 8.75 9.47976 8.80531 9.58525 8.90377C9.69074 9.00223 9.75 9.13576 9.75 9.275C9.75 9.41424 9.69074 9.54777 9.58525 9.64623C9.47976 9.74469 9.33668 9.8 9.1875 9.8H5.0625C4.91332 9.8 4.77024 9.74469 4.66475 9.64623C4.55926 9.54777 4.5 9.41424 4.5 9.275ZM4.5 11.375C4.5 11.2358 4.55926 11.1022 4.66475 11.0038C4.77024 10.9053 4.91332 10.85 5.0625 10.85H9.1875C9.33668 10.85 9.47976 10.9053 9.58525 11.0038C9.69074 11.1022 9.75 11.2358 9.75 11.375C9.75 11.5142 9.69074 11.6478 9.58525 11.7462C9.47976 11.8447 9.33668 11.9 9.1875 11.9H5.0625C4.91332 11.9 4.77024 11.8447 4.66475 11.7462C4.55926 11.6478 4.5 11.5142 4.5 11.375ZM7.125 4.2V0.35L11.625 4.55H7.5C7.40054 4.55 7.30516 4.51313 7.23483 4.44749C7.16451 4.38185 7.125 4.29283 7.125 4.2Z" fill="white"/>
</svg>
