<svg width="14" height="14" viewBox="0 0 14 14" fill="none" xmlns="http://www.w3.org/2000/svg">
<path d="M4.86111 6.02778C4.86111 6.23406 4.77917 6.43189 4.63331 6.57775C4.48744 6.72361 4.28961 6.80556 4.08333 6.80556C3.87705 6.80556 3.67922 6.72361 3.53336 6.57775C3.3875 6.43189 3.30556 6.23406 3.30556 6.02778C3.30556 5.8215 3.3875 5.62367 3.53336 5.47781C3.67922 5.33194 3.87705 5.25 4.08333 5.25C4.28961 5.25 4.48744 5.33194 4.63331 5.47781C4.77917 5.62367 4.86111 5.8215 4.86111 6.02778V6.02778ZM4.08333 11.0833C4.28961 11.0833 4.48744 11.0014 4.63331 10.8555C4.77917 10.7097 4.86111 10.5118 4.86111 10.3056C4.86111 10.0993 4.77917 9.90145 4.63331 9.75558C4.48744 9.60972 4.28961 9.52778 4.08333 9.52778C3.87705 9.52778 3.67922 9.60972 3.53336 9.75558C3.3875 9.90145 3.30556 10.0993 3.30556 10.3056C3.30556 10.5118 3.3875 10.7097 3.53336 10.8555C3.67922 11.0014 3.87705 11.0833 4.08333 11.0833ZM0 2.43056C0 1.78593 0.256076 1.16771 0.711893 0.711893C1.16771 0.256076 1.78593 0 2.43056 0H11.5694C12.2141 0 12.8323 0.256076 13.2881 0.711893C13.7439 1.16771 14 1.78593 14 2.43056V11.5694C14 12.2141 13.7439 12.8323 13.2881 13.2881C12.8323 13.7439 12.2141 14 11.5694 14H2.43056C1.78593 14 1.16771 13.7439 0.711893 13.2881C0.256076 12.8323 0 12.2141 0 11.5694V2.43056ZM5.83333 6.02778C5.83333 5.79796 5.78807 5.5704 5.70012 5.35808C5.61218 5.14576 5.48327 4.95284 5.32077 4.79034C5.15827 4.62784 4.96535 4.49893 4.75303 4.41099C4.54071 4.32304 4.31315 4.27778 4.08333 4.27778C3.85352 4.27778 3.62596 4.32304 3.41364 4.41099C3.20132 4.49893 3.0084 4.62784 2.8459 4.79034C2.68339 4.95284 2.55449 5.14576 2.46654 5.35808C2.3786 5.5704 2.33333 5.79796 2.33333 6.02778C2.33333 6.49191 2.51771 6.93703 2.8459 7.26521C3.17409 7.5934 3.6192 7.77778 4.08333 7.77778C4.54746 7.77778 4.99258 7.5934 5.32077 7.26521C5.64896 6.93703 5.83333 6.49191 5.83333 6.02778V6.02778ZM4.08333 12.0556C4.54746 12.0556 4.99258 11.8712 5.32077 11.543C5.64896 11.2148 5.83333 10.7697 5.83333 10.3056C5.83333 9.84143 5.64896 9.39631 5.32077 9.06812C4.99258 8.73993 4.54746 8.55556 4.08333 8.55556C3.6192 8.55556 3.17409 8.73993 2.8459 9.06812C2.51771 9.39631 2.33333 9.84143 2.33333 10.3056C2.33333 10.7697 2.51771 11.2148 2.8459 11.543C3.17409 11.8712 3.6192 12.0556 4.08333 12.0556V12.0556ZM2.81944 1.94444C2.69052 1.94444 2.56688 1.99566 2.47571 2.08682C2.38455 2.17799 2.33333 2.30163 2.33333 2.43056C2.33333 2.55948 2.38455 2.68312 2.47571 2.77429C2.56688 2.86545 2.69052 2.91667 2.81944 2.91667H11.1806C11.3095 2.91667 11.4331 2.86545 11.5243 2.77429C11.6155 2.68312 11.6667 2.55948 11.6667 2.43056C11.6667 2.30163 11.6155 2.17799 11.5243 2.08682C11.4331 1.99566 11.3095 1.94444 11.1806 1.94444H2.81944ZM6.61111 6.125C6.61111 6.39333 6.82889 6.61111 7.09722 6.61111H11.1806C11.3095 6.61111 11.4331 6.5599 11.5243 6.46873C11.6155 6.37757 11.6667 6.25392 11.6667 6.125C11.6667 5.99608 11.6155 5.87243 11.5243 5.78127C11.4331 5.6901 11.3095 5.63889 11.1806 5.63889H7.09722C6.82889 5.63889 6.61111 5.85667 6.61111 6.125ZM7.09722 9.72222C6.9683 9.72222 6.84465 9.77344 6.75349 9.8646C6.66233 9.95576 6.61111 10.0794 6.61111 10.2083C6.61111 10.3373 6.66233 10.4609 6.75349 10.5521C6.84465 10.6432 6.9683 10.6944 7.09722 10.6944H11.1806C11.3095 10.6944 11.4331 10.6432 11.5243 10.5521C11.6155 10.4609 11.6667 10.3373 11.6667 10.2083C11.6667 10.0794 11.6155 9.95576 11.5243 9.8646C11.4331 9.77344 11.3095 9.72222 11.1806 9.72222H7.09722Z" fill="white"/>
</svg>
