<svg width="14" height="14" viewBox="0 0 14 14" fill="none" xmlns="http://www.w3.org/2000/svg">
<path d="M7 0C3.13413 0 0 3.13413 0 7C0 10.8659 3.13413 14 7 14C10.8659 14 14 10.8659 14 7C14 3.13413 10.8659 0 7 0ZM6.58677 7.18503C6.58677 7.3143 6.3427 7.133 6.27853 7.2625C6.21437 7.39177 6.1761 6.8103 6.15043 6.61593C6.1243 6.42227 6.02163 7.14607 5.9318 7.12017C5.84127 7.0945 5.39163 7.06837 5.3018 6.9132C5.21197 6.75827 5.17347 6.49973 5.3018 6.49973C5.4306 6.49973 5.9059 6.0473 6.02163 5.85317C6.13713 5.65927 6.25287 5.60723 6.20153 5.362C6.15043 5.1163 6.4645 4.83817 6.4589 5.03883C6.4456 5.47843 6.75453 5.362 6.87003 5.71107C6.98577 6.0599 6.67753 6.30583 6.66423 6.17633C6.6514 6.04707 6.49717 6.09887 6.18893 6.2671C5.88047 6.4351 6.26593 6.31867 6.34293 6.53847C6.42017 6.75827 6.51 6.66773 6.77997 6.7452C7.04947 6.8229 6.90877 6.52563 7.00023 6.4351C7.0924 6.34457 7.0756 6.83597 7.1967 6.70647C7.31757 6.5772 7.70513 6.78393 7.70513 6.78393C7.98793 6.91343 8.38623 6.9594 8.38623 6.9594C8.7591 7.07 8.92593 7.39177 9.10607 7.5803C9.28597 7.7693 9.08017 7.81853 8.79783 7.5803C8.51503 7.34253 8.5022 7.43027 8.41237 7.54483C8.32207 7.65893 8.12957 7.4564 7.94943 7.53387C7.76977 7.61157 8.02667 7.24967 7.8596 7.1204C7.69253 6.99113 7.2814 6.8747 7.29447 7.01727C7.3073 7.15913 6.9727 7.08143 6.72863 6.95963C6.4841 6.83737 6.58677 7.05553 6.58677 7.18503ZM8.61723 10.7662C8.79737 10.7919 8.8543 10.6262 8.86177 10.7662C8.8711 10.951 8.8102 11.2443 8.69447 11.2056C8.57897 11.1666 8.43733 10.7401 8.61723 10.7662ZM11.316 10.9592C11.1617 11.0229 11.0973 11.1153 11.0203 11.3349C10.9431 11.5544 10.7245 11.6706 10.5833 11.5544C10.4424 11.4382 10.6603 11.2313 10.8019 11.2091C10.9431 11.1867 10.9947 10.934 11.1746 10.7662C11.3547 10.598 11.0238 10.2979 11.1746 10.1715C11.2518 10.1068 11.3421 10.4041 11.4574 10.3913C11.5733 10.378 11.7404 10.4944 11.5988 10.6043C11.4574 10.714 11.4702 10.8953 11.316 10.9592ZM9.3968 1.491C9.4696 1.3608 9.50133 1.1592 9.51417 0.9688C9.60307 1.0059 9.69057 1.04533 9.77737 1.08617C9.53003 1.49193 9.2708 1.71593 9.3968 1.491ZM8.31763 0.714933C8.39463 0.8897 8.39463 1.56823 8.39463 1.93643C8.39463 2.3051 8.9537 1.76213 9.2428 1.74277C9.53167 1.7234 8.31763 2.46027 8.31763 2.8868C8.31763 3.31333 7.8162 3.31333 7.50773 3.5266C7.19927 3.73987 7.1995 3.79797 7.1995 3.5266C7.1995 3.25523 7.66197 3.06133 7.93217 2.96427C8.20167 2.86743 8.1053 2.13057 8.19117 1.9173C8.2768 1.70427 8.2229 0.500967 8.31763 0.714933ZM7.448 7.7413C7.6279 7.70257 7.85913 7.79263 7.82087 7.89623C7.78213 7.9996 7.71773 8.07707 7.82087 8.12863C7.9233 8.18043 8.14193 8.43897 8.1914 8.32277C8.24017 8.20633 8.1732 7.61273 8.32183 7.7413C8.41213 7.819 8.5792 8.3615 8.95183 8.69773C9.32447 9.03373 9.4143 9.4864 9.3499 9.64157C9.28573 9.79673 9.11867 10.0035 9.093 10.3007C9.0671 10.598 8.69447 10.6367 8.54023 10.5852C8.386 10.5336 8.1165 10.637 8.1165 10.5077C8.1165 10.3782 8.0906 10.2104 7.9107 10.2048C7.7308 10.1992 7.61507 10.094 7.5124 9.89987C7.4095 9.70597 6.8054 9.8742 6.71557 9.97757C6.62573 10.0807 6.30443 10.042 6.08603 10.1715C5.8674 10.3007 5.75167 10.0291 5.81607 9.7706C5.88023 9.51207 5.58483 9.2407 5.58483 8.90423C5.58483 8.56823 6.29137 8.63287 6.34293 8.52973C6.39473 8.42613 6.4456 8.37433 6.57417 8.23247C6.70297 8.09013 6.81847 7.9478 7.00023 8.0423C7.182 8.13703 7.12717 8.01267 7.1967 7.87057C7.26623 7.72777 7.26763 7.7798 7.448 7.7413ZM7 0.466667C7.2891 0.466667 7.5733 0.487433 7.8526 0.523833C7.83837 0.624633 7.889 0.694633 7.9898 0.6762C8.20167 0.637467 8.20167 0.986533 8.12467 1.43243C8.04743 1.87857 7.7392 2.32423 7.46947 2.34383C7.1995 2.36343 7.08353 2.75123 7.14163 2.92553C7.1995 3.10007 6.98763 3.50723 6.8523 3.50723C6.71767 3.50723 6.73703 3.17777 6.71767 2.8091C6.6983 2.4409 6.4092 2.6152 6.13947 2.8091C5.8695 3.003 6.54383 3.003 6.42833 3.08047C6.3126 3.15817 6.33197 3.3327 6.42833 3.5847C6.52493 3.8367 6.1201 4.36053 5.9465 4.53483C5.77313 4.70937 5.4264 4.53483 5.05983 4.76747C4.69373 5.0001 5.27193 5.5237 5.2332 5.67887C5.19493 5.83427 4.88623 5.7953 4.59713 5.56243C4.30803 5.3298 4.4429 5.8534 4.65477 6.14437C4.8671 6.4351 4.8671 6.7452 4.98237 6.95893C5.09833 7.17243 5.79227 7.17197 6.1005 7.32713C6.40873 7.4823 7.23753 7.36587 7.23753 7.36587C7.60387 7.3465 6.65933 7.8505 6.31237 7.6762C5.96563 7.50143 4.65477 7.19133 4.3078 6.7648C3.96083 6.33827 3.49813 5.19423 3.7681 5.56243C4.0376 5.93087 4.5969 6.53217 4.51967 6.377C4.44267 6.22183 4.17317 5.81467 4.19207 5.5237C4.21143 5.23297 4.0572 5.1359 3.94193 5.23297C3.82597 5.3298 3.8647 4.90327 3.7296 4.67063C3.59473 4.438 3.1514 4.9616 2.84317 5.0449C2.53447 5.1282 2.53493 5.7953 2.36133 5.91173C2.18773 6.0277 1.89887 5.11677 1.91777 4.70937C1.93713 4.3022 1.68653 4.84493 1.47467 4.438C1.3965 4.2875 1.25253 4.21703 1.10203 4.18717C2.15343 1.9873 4.3995 0.466667 7 0.466667Z" fill="white"/>
</svg>
