<svg width="14" height="14" viewBox="0 0 14 14" fill="none" xmlns="http://www.w3.org/2000/svg">
<path d="M5.25 2.86563C5.25 2.61406 5.09141 2.39258 4.88906 2.24219C4.57188 2.0043 4.375 1.67617 4.375 1.3125C4.375 0.587891 5.15977 0 6.125 0C7.09023 0 7.875 0.587891 7.875 1.3125C7.875 1.67617 7.67813 2.0043 7.36094 2.24219C7.15859 2.39258 7 2.61406 7 2.86563C7 3.21563 7.28438 3.5 7.63438 3.5H9.1875C9.91211 3.5 10.5 4.08789 10.5 4.8125V6.36563C10.5 6.71563 10.7844 7 11.1344 7C11.3859 7 11.6074 6.84141 11.7578 6.63906C11.9957 6.32188 12.3238 6.125 12.6875 6.125C13.4121 6.125 14 6.90977 14 7.875C14 8.84023 13.4121 9.625 12.6875 9.625C12.3238 9.625 11.9957 9.42813 11.7578 9.11094C11.6074 8.90859 11.3859 8.75 11.1344 8.75C10.7844 8.75 10.5 9.03438 10.5 9.38438V12.6875C10.5 13.4121 9.91211 14 9.1875 14H7.63438C7.28438 14 7 13.7156 7 13.3656C7 13.1141 7.15859 12.8926 7.36094 12.7422C7.67813 12.5043 7.875 12.1762 7.875 11.8125C7.875 11.0879 7.09023 10.5 6.125 10.5C5.15977 10.5 4.375 11.0879 4.375 11.8125C4.375 12.1762 4.57188 12.5043 4.88906 12.7422C5.09141 12.8926 5.25 13.1141 5.25 13.3656C5.25 13.7156 4.96563 14 4.61563 14H1.3125C0.587891 14 0 13.4121 0 12.6875V9.38438C0 9.03438 0.284375 8.75 0.634375 8.75C0.885938 8.75 1.10742 8.90859 1.25781 9.11094C1.4957 9.42813 1.82383 9.625 2.1875 9.625C2.91211 9.625 3.5 8.84023 3.5 7.875C3.5 6.90977 2.91211 6.125 2.1875 6.125C1.82383 6.125 1.4957 6.32188 1.25781 6.63906C1.10742 6.84141 0.885938 7 0.634375 7C0.284375 7 0 6.71563 0 6.36563V4.8125C0 4.08789 0.587891 3.5 1.3125 3.5H4.61563C4.96563 3.5 5.25 3.21563 5.25 2.86563Z" fill="white"/>
</svg>
