<svg width="18" height="19" viewBox="0 0 18 19" fill="none" xmlns="http://www.w3.org/2000/svg">
<g clip-path="url(#clip0_1_732)">
<path d="M16 6.956V13.0625C16 13.6851 15.7777 14.2841 15.3786 14.7367C14.9795 15.1892 14.434 15.461 13.8538 15.4963L13.725 15.5H4.275C3.6939 15.5 3.13482 15.2618 2.71244 14.8342C2.29006 14.4067 2.0364 13.8221 2.0035 13.2005L2 13.0625V6.956L8.7564 10.748C8.83156 10.7902 8.91515 10.8122 9 10.8122C9.08485 10.8122 9.16844 10.7902 9.2436 10.748L16 6.956ZM4.275 3.5H13.725C14.2889 3.49993 14.8327 3.72425 15.251 4.12945C15.6693 4.53465 15.9322 5.09186 15.9888 5.693L9 9.6155L2.0112 5.693C2.06547 5.11573 2.31013 4.57814 2.70122 4.17685C3.09231 3.77556 3.60418 3.53689 4.1448 3.50375L4.275 3.5H13.725H4.275Z" fill="white"/>
<path d="M14.5 8C16.7091 8 18.5 6.20914 18.5 4C18.5 1.79086 16.7091 0 14.5 0C12.2909 0 10.5 1.79086 10.5 4C10.5 6.20914 12.2909 8 14.5 8Z" fill="#44CE43" stroke="#191C24"/>
</g>
<defs>
<clipPath id="clip0_1_732">
<rect width="18" height="18" fill="white" transform="translate(0 0.5)"/>
</clipPath>
</defs>
</svg>
