<svg width="18" height="19" viewBox="0 0 18 19" fill="none" xmlns="http://www.w3.org/2000/svg">
<g clip-path="url(#clip0_1_735)">
<path d="M15 14.2434L14.8631 14.1098C14.4747 13.7268 14.1347 13.2877 13.8523 12.8042C13.544 12.137 13.3592 11.4083 13.3087 10.6609V8.45973C13.3114 7.28588 12.9266 6.15135 12.2266 5.26931C11.5266 4.38727 10.5597 3.81843 9.50738 3.66967V3.09486C9.50738 2.93709 9.45074 2.78579 9.34993 2.67423C9.24911 2.56267 9.11237 2.5 8.9698 2.5C8.82722 2.5 8.69049 2.56267 8.58967 2.67423C8.48885 2.78579 8.43222 2.93709 8.43222 3.09486V3.67858C7.38937 3.83807 6.43408 4.41035 5.7433 5.28942C5.05252 6.1685 4.67305 7.2948 4.67517 8.45973V10.6609C4.62473 11.4083 4.43991 12.137 4.13154 12.8042C3.85405 13.2865 3.51954 13.7256 3.13691 14.1098L3 14.2434V15.5H15V14.2434Z" fill="white"/>
<path d="M8 15.5C8.03341 15.7772 8.15306 16.0311 8.33687 16.2149C8.52068 16.3987 8.75622 16.5 9 16.5C9.24378 16.5 9.47932 16.3987 9.66313 16.2149C9.84694 16.0311 9.96659 15.7772 10 15.5H8Z" fill="white"/>
<path d="M14.5 8C16.7091 8 18.5 6.20914 18.5 4C18.5 1.79086 16.7091 0 14.5 0C12.2909 0 10.5 1.79086 10.5 4C10.5 6.20914 12.2909 8 14.5 8Z" fill="#DC3545" stroke="#191C24"/>
</g>
<defs>
<clipPath id="clip0_1_735">
<rect width="18" height="18" fill="white" transform="translate(0 0.5)"/>
</clipPath>
</defs>
</svg>
