<svg width="8" height="12" viewBox="0 0 8 12" fill="none" xmlns="http://www.w3.org/2000/svg">
<path d="M4.0002 0C1.80171 0 0 1.88611 0 4.18813C0 5.08008 0.271332 5.90906 0.7305 6.59038L3.51199 11.6393C3.90151 12.1736 4.16047 12.0721 4.48438 11.611L7.5524 6.12916C7.61425 6.01141 7.66292 5.88605 7.70527 5.758C7.89996 5.25986 8.00008 4.72658 8 4.18813C8.00013 1.88611 6.19896 0 4.0002 0ZM4.0002 1.96235C5.18422 1.96235 6.12568 2.9486 6.12568 4.18813C6.12568 5.42765 5.18422 6.41348 4.0002 6.41348C2.81632 6.41348 1.87445 5.42779 1.87445 4.18813C1.87445 2.9486 2.81632 1.96249 4.0002 1.96249V1.96235Z" fill="white"/>
</svg>
