<svg width="54" height="56" viewBox="0 0 54 56" fill="none" xmlns="http://www.w3.org/2000/svg">
<path d="M24.403 2.67274C25.1975 2.23153 26.0913 2 27.0001 2C27.9088 2 28.8026 2.23153 29.5971 2.67274L49.697 13.8367C50.1137 14.0684 50.4609 14.4073 50.7026 14.8183C50.9444 15.2293 51.0718 15.6975 51.0718 16.1743V38.1999C51.0716 39.1538 50.8163 40.0903 50.3324 40.9124C49.8484 41.7344 49.1535 42.4121 48.3196 42.8752L29.5971 53.2796C28.8026 53.7208 27.9088 53.9523 27.0001 53.9523C26.0913 53.9523 25.1975 53.7208 24.403 53.2796L5.68053 42.8752C4.84699 42.4123 4.15233 41.7351 3.66844 40.9135C3.18455 40.092 2.92903 39.1561 2.92833 38.2026V16.1743C2.92831 15.6975 3.05576 15.2293 3.29747 14.8183C3.53918 14.4073 3.88638 14.0684 4.30309 13.8367L24.4057 2.67274H24.403Z" stroke="#0090E7" stroke-width="4" stroke-linecap="round" stroke-linejoin="round"/>
<path d="M2.92833 14.6016L27.0001 27.9748M27.0001 27.9748L51.0718 14.6016M27.0001 27.9748V54.7212" stroke="#0090E7" stroke-width="4" stroke-linejoin="round"/>
<path d="M14.9642 21.2882L39.0359 7.91504M10.9522 28.8521L18.9761 33.3241" stroke="#0090E7" stroke-width="4" stroke-linecap="round" stroke-linejoin="round"/>
</svg>
