<svg width="56" height="50" viewBox="0 0 56 50" fill="none" xmlns="http://www.w3.org/2000/svg">
<path d="M36.6667 13.5V7.75C36.6667 6.22501 36.0579 4.76247 34.9744 3.68414C33.8908 2.6058 32.4213 2 30.8889 2H25.1111C23.5787 2 22.1091 2.6058 21.0256 3.68414C19.9421 4.76247 19.3333 6.22501 19.3333 7.75V13.5M36.6667 13.5H48.2222C49.7546 13.5 51.2242 14.1058 52.3077 15.1841C53.3913 16.2625 54 17.725 54 19.25V42.25C54 43.775 53.3913 45.2375 52.3077 46.3159C51.2242 47.3942 49.7546 48 48.2222 48H13.5556M36.6667 13.5H19.3333M19.3333 13.5H13.5556M13.5556 13.5H7.77778C6.24542 13.5 4.77582 14.1058 3.69227 15.1841C2.60873 16.2625 2 17.725 2 19.25V42.25C2 43.775 2.60873 45.2375 3.69227 46.3159C4.77582 47.3942 6.24542 48 7.77778 48H13.5556M13.5556 13.5V48M42.4444 13.5V48" stroke="#FC424A" stroke-width="4" stroke-linecap="round" stroke-linejoin="round"/>
</svg>
