<svg width="16" height="12" viewBox="0 0 16 12" fill="none" xmlns="http://www.w3.org/2000/svg">
<path d="M4.92308 10.6364V9C4.92308 8.92045 4.89423 8.85511 4.83654 8.80398C4.77885 8.75284 4.70513 8.72727 4.61538 8.72727H1.53846C1.44872 8.72727 1.375 8.75284 1.31731 8.80398C1.25962 8.85511 1.23077 8.92045 1.23077 9V10.6364C1.23077 10.7159 1.25962 10.7813 1.31731 10.8324C1.375 10.8835 1.44872 10.9091 1.53846 10.9091H4.61538C4.70513 10.9091 4.77885 10.8835 4.83654 10.8324C4.89423 10.7813 4.92308 10.7159 4.92308 10.6364ZM4.92308 7.36364V5.72727C4.92308 5.64773 4.89423 5.58239 4.83654 5.53125C4.77885 5.48011 4.70513 5.45455 4.61538 5.45455H1.53846C1.44872 5.45455 1.375 5.48011 1.31731 5.53125C1.25962 5.58239 1.23077 5.64773 1.23077 5.72727V7.36364C1.23077 7.44318 1.25962 7.50852 1.31731 7.55966C1.375 7.6108 1.44872 7.63636 1.53846 7.63636H4.61538C4.70513 7.63636 4.77885 7.6108 4.83654 7.55966C4.89423 7.50852 4.92308 7.44318 4.92308 7.36364ZM9.84615 10.6364V9C9.84615 8.92045 9.81731 8.85511 9.75962 8.80398C9.70192 8.75284 9.62821 8.72727 9.53846 8.72727H6.46154C6.3718 8.72727 6.29808 8.75284 6.24038 8.80398C6.18269 8.85511 6.15385 8.92045 6.15385 9V10.6364C6.15385 10.7159 6.18269 10.7813 6.24038 10.8324C6.29808 10.8835 6.3718 10.9091 6.46154 10.9091H9.53846C9.62821 10.9091 9.70192 10.8835 9.75962 10.8324C9.81731 10.7813 9.84615 10.7159 9.84615 10.6364ZM4.92308 4.09091V2.45455C4.92308 2.375 4.89423 2.30966 4.83654 2.25852C4.77885 2.20739 4.70513 2.18182 4.61538 2.18182H1.53846C1.44872 2.18182 1.375 2.20739 1.31731 2.25852C1.25962 2.30966 1.23077 2.375 1.23077 2.45455V4.09091C1.23077 4.17045 1.25962 4.2358 1.31731 4.28693C1.375 4.33807 1.44872 4.36364 1.53846 4.36364H4.61538C4.70513 4.36364 4.77885 4.33807 4.83654 4.28693C4.89423 4.2358 4.92308 4.17045 4.92308 4.09091ZM9.84615 7.36364V5.72727C9.84615 5.64773 9.81731 5.58239 9.75962 5.53125C9.70192 5.48011 9.62821 5.45455 9.53846 5.45455H6.46154C6.3718 5.45455 6.29808 5.48011 6.24038 5.53125C6.18269 5.58239 6.15385 5.64773 6.15385 5.72727V7.36364C6.15385 7.44318 6.18269 7.50852 6.24038 7.55966C6.29808 7.6108 6.3718 7.63636 6.46154 7.63636H9.53846C9.62821 7.63636 9.70192 7.6108 9.75962 7.55966C9.81731 7.50852 9.84615 7.44318 9.84615 7.36364ZM14.7692 10.6364V9C14.7692 8.92045 14.7404 8.85511 14.6827 8.80398C14.625 8.75284 14.5513 8.72727 14.4615 8.72727H11.3846C11.2949 8.72727 11.2212 8.75284 11.1635 8.80398C11.1058 8.85511 11.0769 8.92045 11.0769 9V10.6364C11.0769 10.7159 11.1058 10.7813 11.1635 10.8324C11.2212 10.8835 11.2949 10.9091 11.3846 10.9091H14.4615C14.5513 10.9091 14.625 10.8835 14.6827 10.8324C14.7404 10.7813 14.7692 10.7159 14.7692 10.6364ZM9.84615 4.09091V2.45455C9.84615 2.375 9.81731 2.30966 9.75962 2.25852C9.70192 2.20739 9.62821 2.18182 9.53846 2.18182H6.46154C6.3718 2.18182 6.29808 2.20739 6.24038 2.25852C6.18269 2.30966 6.15385 2.375 6.15385 2.45455V4.09091C6.15385 4.17045 6.18269 4.2358 6.24038 4.28693C6.29808 4.33807 6.3718 4.36364 6.46154 4.36364H9.53846C9.62821 4.36364 9.70192 4.33807 9.75962 4.28693C9.81731 4.2358 9.84615 4.17045 9.84615 4.09091ZM14.7692 7.36364V5.72727C14.7692 5.64773 14.7404 5.58239 14.6827 5.53125C14.625 5.48011 14.5513 5.45455 14.4615 5.45455H11.3846C11.2949 5.45455 11.2212 5.48011 11.1635 5.53125C11.1058 5.58239 11.0769 5.64773 11.0769 5.72727V7.36364C11.0769 7.44318 11.1058 7.50852 11.1635 7.55966C11.2212 7.6108 11.2949 7.63636 11.3846 7.63636H14.4615C14.5513 7.63636 14.625 7.6108 14.6827 7.55966C14.7404 7.50852 14.7692 7.44318 14.7692 7.36364ZM14.7692 4.09091V2.45455C14.7692 2.375 14.7404 2.30966 14.6827 2.25852C14.625 2.20739 14.5513 2.18182 14.4615 2.18182H11.3846C11.2949 2.18182 11.2212 2.20739 11.1635 2.25852C11.1058 2.30966 11.0769 2.375 11.0769 2.45455V4.09091C11.0769 4.17045 11.1058 4.2358 11.1635 4.28693C11.2212 4.33807 11.2949 4.36364 11.3846 4.36364H14.4615C14.5513 4.36364 14.625 4.33807 14.6827 4.28693C14.7404 4.2358 14.7692 4.17045 14.7692 4.09091ZM16 1.36364V10.6364C16 11.0114 15.8494 11.3324 15.5481 11.5994C15.2468 11.8665 14.8846 12 14.4615 12H1.53846C1.11538 12 0.753205 11.8665 0.451923 11.5994C0.150641 11.3324 0 11.0114 0 10.6364V1.36364C0 0.988636 0.150641 0.667614 0.451923 0.400568C0.753205 0.133523 1.11538 0 1.53846 0H14.4615C14.8846 0 15.2468 0.133523 15.5481 0.400568C15.8494 0.667614 16 0.988636 16 1.36364Z" fill="white"/>
</svg>
