<svg width="14" height="14" viewBox="0 0 14 14" fill="none" xmlns="http://www.w3.org/2000/svg">
<path d="M0 2.91667C0 2.14312 0.307291 1.40125 0.854272 0.854272C1.40125 0.307291 2.14312 0 2.91667 0H11.0833C11.8569 0 12.5987 0.307291 13.1457 0.854272C13.6927 1.40125 14 2.14312 14 2.91667V11.0833C14 11.8569 13.6927 12.5987 13.1457 13.1457C12.5987 13.6927 11.8569 14 11.0833 14H2.91667C2.14312 14 1.40125 13.6927 0.854272 13.1457C0.307291 12.5987 0 11.8569 0 11.0833V2.91667ZM7.58333 9.91667C7.58333 10.0714 7.64479 10.2197 7.75419 10.3291C7.86358 10.4385 8.01196 10.5 8.16667 10.5H10.7917C10.9464 10.5 11.0947 10.4385 11.2041 10.3291C11.3135 10.2197 11.375 10.0714 11.375 9.91667C11.375 9.76196 11.3135 9.61358 11.2041 9.50419C11.0947 9.39479 10.9464 9.33333 10.7917 9.33333H8.16667C8.01196 9.33333 7.86358 9.39479 7.75419 9.50419C7.64479 9.61358 7.58333 9.76196 7.58333 9.91667ZM8.16667 4.66667C8.01196 4.66667 7.86358 4.72812 7.75419 4.83752C7.64479 4.94692 7.58333 5.09529 7.58333 5.25C7.58333 5.40471 7.64479 5.55308 7.75419 5.66248C7.86358 5.77187 8.01196 5.83333 8.16667 5.83333H10.7917C10.9464 5.83333 11.0947 5.77187 11.2041 5.66248C11.3135 5.55308 11.375 5.40471 11.375 5.25C11.375 5.09529 11.3135 4.94692 11.2041 4.83752C11.0947 4.72812 10.9464 4.66667 10.7917 4.66667H8.16667ZM6.24633 8.337C6.19215 8.28268 6.12778 8.23958 6.05691 8.21017C5.98604 8.18076 5.91006 8.16562 5.83333 8.16562C5.7566 8.16562 5.68063 8.18076 5.60976 8.21017C5.53889 8.23958 5.47452 8.28268 5.42033 8.337L4.08333 9.67517L3.62367 9.21433C3.51429 9.1048 3.36587 9.0432 3.21108 9.04309C3.05628 9.04298 2.90778 9.10437 2.79825 9.21375C2.68872 9.32313 2.62712 9.47154 2.62701 9.62634C2.6269 9.78113 2.68829 9.92963 2.79767 10.0392L3.67033 10.913C3.72452 10.9673 3.78889 11.0104 3.85976 11.0398C3.93063 11.0692 4.0066 11.0844 4.08333 11.0844C4.16006 11.0844 4.23604 11.0692 4.30691 11.0398C4.37778 11.0104 4.44215 10.9673 4.49633 10.913L6.24633 9.163C6.30066 9.10881 6.34376 9.04444 6.37316 8.97357C6.40257 8.9027 6.41771 8.82673 6.41771 8.75C6.41771 8.67327 6.40257 8.5973 6.37316 8.52643C6.34376 8.45556 6.30066 8.39119 6.24633 8.337ZM6.24633 4.49633C6.30057 4.4421 6.34359 4.37771 6.37294 4.30685C6.4023 4.23598 6.4174 4.16003 6.4174 4.08333C6.4174 4.00663 6.4023 3.93068 6.37294 3.85982C6.34359 3.78896 6.30057 3.72457 6.24633 3.67033C6.1921 3.6161 6.12771 3.57307 6.05685 3.54372C5.98598 3.51437 5.91003 3.49926 5.83333 3.49926C5.75663 3.49926 5.68068 3.51437 5.60982 3.54372C5.53896 3.57307 5.47457 3.6161 5.42033 3.67033L4.08333 5.0085L3.62367 4.54767C3.51413 4.43813 3.36557 4.3766 3.21067 4.3766C3.05576 4.3766 2.9072 4.43813 2.79767 4.54767C2.68813 4.6572 2.6266 4.80576 2.6266 4.96067C2.6266 5.11557 2.68813 5.26413 2.79767 5.37367L3.67033 6.24633C3.72452 6.30066 3.78889 6.34376 3.85976 6.37316C3.93063 6.40257 4.0066 6.41771 4.08333 6.41771C4.16006 6.41771 4.23604 6.40257 4.30691 6.37316C4.37778 6.34376 4.44215 6.30066 4.49633 6.24633L6.24633 4.49633Z" fill="white"/>
</svg>
