<svg width="14" height="14" viewBox="0 0 14 14" fill="none" xmlns="http://www.w3.org/2000/svg">
<path d="M0.753247 6.46753H5.27273C5.4725 6.46753 5.66409 6.38817 5.80536 6.24691C5.94662 6.10565 6.02598 5.91406 6.02598 5.71428V1.1948C6.02598 0.995028 5.94662 0.803436 5.80536 0.662175C5.66409 0.520914 5.4725 0.441554 5.27273 0.441554H0.753247C0.553473 0.441554 0.361882 0.520914 0.220621 0.662175C0.0793597 0.803436 0 0.995028 0 1.1948V5.71428C0 5.91406 0.0793597 6.10565 0.220621 6.24691C0.361882 6.38817 0.553473 6.46753 0.753247 6.46753ZM0.753247 14H5.27273C5.4725 14 5.66409 13.9206 5.80536 13.7794C5.94662 13.6381 6.02598 13.4465 6.02598 13.2468V8.72727C6.02598 8.5275 5.94662 8.33591 5.80536 8.19465C5.66409 8.05338 5.4725 7.97402 5.27273 7.97402H0.753247C0.553473 7.97402 0.361882 8.05338 0.220621 8.19465C0.0793597 8.33591 0 8.5275 0 8.72727V13.2468C0 13.4465 0.0793597 13.6381 0.220621 13.7794C0.361882 13.9206 0.553473 14 0.753247 14ZM8.28572 14H12.8052C13.005 14 13.1966 13.9206 13.3378 13.7794C13.4791 13.6381 13.5584 13.4465 13.5584 13.2468V8.72727C13.5584 8.5275 13.4791 8.33591 13.3378 8.19465C13.1966 8.05338 13.005 7.97402 12.8052 7.97402H8.28572C8.08594 7.97402 7.89435 8.05338 7.75309 8.19465C7.61183 8.33591 7.53247 8.5275 7.53247 8.72727V13.2468C7.53247 13.4465 7.61183 13.6381 7.75309 13.7794C7.89435 13.9206 8.08594 14 8.28572 14ZM13.7791 2.922L11.078 0.220853C11.0081 0.150842 10.9251 0.095299 10.8337 0.0574026C10.7423 0.0195062 10.6444 0 10.5455 0C10.4465 0 10.3486 0.0195062 10.2572 0.0574026C10.1658 0.095299 10.0828 0.150842 10.0129 0.220853L7.31177 2.922C7.24176 2.99189 7.18621 3.0749 7.14832 3.16628C7.11042 3.25766 7.09092 3.35562 7.09092 3.45454C7.09092 3.55347 7.11042 3.65142 7.14832 3.7428C7.18621 3.83419 7.24176 3.9172 7.31177 3.98709L10.0129 6.68823C10.0828 6.75824 10.1658 6.81379 10.2572 6.85168C10.3486 6.88958 10.4465 6.90908 10.5455 6.90908C10.6444 6.90908 10.7423 6.88958 10.8337 6.85168C10.9251 6.81379 11.0081 6.75824 11.078 6.68823L13.7791 3.98709C13.8492 3.9172 13.9047 3.83419 13.9426 3.7428C13.9805 3.65142 14 3.55347 14 3.45454C14 3.35562 13.9805 3.25766 13.9426 3.16628C13.9047 3.0749 13.8492 2.99189 13.7791 2.922V2.922Z" fill="white"/>
</svg>
